<svg xmlns="http://www.w3.org/2000/svg" viewBox="0 0 246.42 246.54"><g id="Layer_2" data-name="Layer 2"><g id="Layer_1-2" data-name="Layer 1"><path d="M8.21,74.3V240.23c0,4.33-1.38,6.37-4.23,6.27s-4-2-4-6.27V72.39c0-5,.87-6,5.82-6.35,6.66-.47,13,.52,18.82,5.25V68.18q0-23.1,0-46.19C24.65,8.82,33.32.15,46.5.15,69.77.14,93.05.5,116.3,0c13.42-.29,23.51,8.67,23.42,22.13.7-.57,1.26-1,1.8-1.46a16.42,16.42,0,0,1,22,.57,16.25,16.25,0,0,1,1.65,21.9c-3.49,4.43-7.24,8.66-10.95,12.91-1.81,2.08-4.35,2.28-6.12.7s-1.83-4,0-6.16c3.24-3.87,6.56-7.67,9.82-11.52,3.41-4,3.25-9-.35-12.11s-8.27-2.41-12.08,1.27a18.41,18.41,0,0,0-6,15.63c.59,8.26.14,16.58.14,25.08,7.37.77,12.9,4.13,15.37,11.29s.07,13.05-5,18.29l1.64,1.19a16.32,16.32,0,0,1,3.18,24.13c-2.11,2.57-4.33,5.05-6.65,7.76l2,1.18a16.21,16.21,0,0,1,5.29,23.36,79,79,0,0,1-9.13,10.39c-1.76,1.72-4.27,2.69-6.53,4.07a88,88,0,0,1-.66,9.91A20.08,20.08,0,0,1,119.5,197.2c-13.6.13-27.2.05-40.8,0-3,0-4.82-1.67-4.77-4.17s1.87-4,4.93-4c13,0,26,0,39,0,8.52,0,13.51-5,13.53-13.58a5.91,5.91,0,0,1,0-1c.49-2.94-.58-4.49-3.44-5.92C118.82,164,116.46,152,122.86,144c2.19-2.74,4.57-5.32,7-8.13-.59-.39-1.1-.78-1.65-1.09a16.31,16.31,0,0,1-4.5-25.09c2.14-2.56,4.34-5.06,6.63-7.72-4.06-2.51-7-5.84-8.15-10.49-2-8,1.62-14,7.45-18.87a4.13,4.13,0,0,0,1.8-3.56c-.06-15.82,0-31.65,0-47.47,0-8-5.14-13.17-13.15-13.18q-36.19,0-72.37,0c-7.84,0-13,5.2-13,13.05q0,54.15,0,108.29a4.19,4.19,0,0,0,1.81,3.6c18,15,28,34.37,30.52,57.6a17.73,17.73,0,0,1,.09,1.79c0,2.63-1.51,4.42-3.84,4.54s-4-1.5-4.36-4.14c-.58-3.89-.92-7.83-1.84-11.64C50.9,163.62,41.59,149,26.94,137.8a5.76,5.76,0,0,1-2.33-5.08c.05-12.4.15-24.8,0-37.21A45.46,45.46,0,0,0,23,83.9C21,77,15.83,73.84,8.21,74.3Zm142.28,38.86a7.89,7.89,0,0,0-5-7.42,7.55,7.55,0,0,0-8.94,1.64c-2.46,2.6-4.83,5.31-7,8.12a7.82,7.82,0,0,0,0,9.75c2.13,2.83,5.88,4.29,9.12,2.7,5.52-2.73,9-7.59,11.67-13A5.17,5.17,0,0,0,150.49,113.16ZM150.17,148c-.2-4.65-1.88-7.2-5.08-8.55a7.6,7.6,0,0,0-9,1.82c-2.33,2.38-4.5,4.92-6.63,7.49A8.2,8.2,0,1,0,142,159.44a80.08,80.08,0,0,0,5.87-6.78A26.53,26.53,0,0,0,150.17,148Zm-2.49-62.5a8.18,8.18,0,0,0-8.15-8.14c-4.67,0-9.76,5.31-9.66,10.14a8.14,8.14,0,0,0,8.28,8C142.82,95.38,147.72,90.26,147.68,85.5Z"/><path d="M238,221.85v16.47c1.19,0,2.7-.07,4.21,0a4.09,4.09,0,1,1,.06,8.17c-.6.05-1.2,0-1.8,0H129.16a12.12,12.12,0,0,1-2.56-.1,4.07,4.07,0,0,1,.12-8,12.83,12.83,0,0,1,2.56-.08H205.5V221.88H129.66c-.77,0-1.54,0-2.31,0a4.09,4.09,0,0,1-.11-8.18c.59-.05,1.2,0,1.79,0h111.6a12.68,12.68,0,0,1,2.05.05,4.07,4.07,0,0,1-.06,8.11C241.27,222,239.89,221.85,238,221.85Zm-24.47.16c0,4.3-.15,8.46.06,12.61.12,2.34,1.8,3.61,4.16,3.67q4,.09,7.93,0c2.37-.07,4-1.35,4.15-3.69.21-4.14.06-8.31.06-12.59Z"/><path d="M237.68,180.82c-1.18-4.48-4.05-7-7.69-8.8a53,53,0,0,0-19.51-5c-14.65-1.08-29.34-1.75-44-2.58a26.11,26.11,0,0,1-2.81-.1,3.84,3.84,0,0,1-3.48-3.83,3.72,3.72,0,0,1,2.87-4,6.17,6.17,0,0,1,2-.26c16.67.3,33.35.48,49.88,3,1.52.23,3,.49,4.91.81-.21-.86-.32-1.56-.54-2.23-3.58-10.77-7.2-21.53-10.73-32.32-1.53-4.67-4.66-7.27-9.5-7.68-9.28-.8-18.57-1.49-27.86-2.22-1.1-.08-2.23,0-3.32-.24a4.07,4.07,0,0,1-3.63-4.25,4,4,0,0,1,4.34-3.78q10.88.54,21.75,1.34c3.66.26,7.32.69,11,1.22,7.37,1.07,12.35,5.28,14.74,12.23,4.4,12.75,8.61,25.57,12.79,38.39a4.88,4.88,0,0,0,3.09,3.34c9.85,4.08,14.77,11.4,14.46,22.18-.14,4.78,0,9.57,0,14.36,0,3.54-1.47,5-5,5q-15.53,0-31,0c-3.54,0-5-1.46-5.05-4.94,0-2.48,0-5,0-7.44a12.25,12.25,0,0,1,12.27-12.23C224.18,180.76,230.76,180.82,237.68,180.82ZM213.55,197.1H238v-8c-6.92,0-13.66-.06-20.41,0a3.85,3.85,0,0,0-4,3.86C213.44,194.27,213.55,195.63,213.55,197.1Z"/><path d="M114.62,72.41c-.07,8.77-2.84,16.46-6.44,23.88-5.9,12.15-13.69,23-22.46,33.27-2.2,2.55-4.77,2.77-6.8.38-11.48-13.47-21.77-27.69-27.24-44.8-3.58-11.22-3.1-22.08,4.68-31.52C65.15,42.94,76.67,39,90.08,42.28c13.1,3.23,21.23,11.81,24.11,25.13a11.81,11.81,0,0,1,.26,1.77C114.54,70.38,114.58,71.57,114.62,72.41ZM82.08,121.16c8.71-10.93,16.44-21.85,21.35-34.51,2.32-6,3.88-12.1,2.5-18.53-2.77-13-15.74-20.94-29.2-18.12A23.42,23.42,0,0,0,58.34,77.89C61.81,94.57,71.81,107.71,82.08,121.16Z"/><path d="M163,181.31c6,0,12-.65,17.9.15,8.86,1.22,15.63,9.5,16.18,18.44a10.89,10.89,0,0,1,0,1.28,4.09,4.09,0,1,1-8.17.33c-1.07-8.63-5.43-12.47-14.13-12.48h-24.9c-.59,0-1.19,0-1.79,0-2.63-.13-4.35-1.76-4.35-4.09a4.05,4.05,0,0,1,4.34-4.08c5-.07,9.93,0,14.89,0Z"/><path d="M90.34,229.08c0,4.25,0,8.35,0,12.44,0,3.06-1.52,4.9-4,5s-4.2-1.84-4.22-5q0-7.57,0-15.13c0-3.3,1.1-4.55,4.47-5.07A37.2,37.2,0,0,0,110.16,208c.84-1,2.08-2.28,3.17-2.32a5.92,5.92,0,0,1,4.13,1.7c1.41,1.54.9,3.49-.43,5.12-5.66,7-12.57,12.26-21.24,15C94.09,228.07,92.35,228.51,90.34,229.08Z"/><path d="M81.87,24.78c-3.76,0-7.52,0-11.29,0-3,0-4.85-1.58-4.86-4.09s1.81-4.09,4.84-4.1q11.55,0,23.1,0c3,0,4.86,1.6,4.87,4.08s-1.84,4.09-4.85,4.11C89.75,24.8,85.81,24.78,81.87,24.78Z"/><path d="M174.74,98.69c-3.34,0-6.68,0-10,0-2.8-.05-4.59-1.71-4.56-4.13s1.81-4,4.63-4q9.75-.06,19.5,0c2.8,0,4.59,1.71,4.57,4.12s-1.82,4-4.64,4.06C181.07,98.73,177.9,98.69,174.74,98.69Z"/><path d="M82.09,172.63c1.45,0,2.91-.09,4.36,0a4,4,0,0,1,3.87,4,4,4,0,0,1-3.81,4.08c-2.9.14-5.82.14-8.72,0a4,4,0,0,1-3.86-4,4,4,0,0,1,4-4.1c1.37-.09,2.74,0,4.11,0Z"/><path d="M82.07,85.88A12.31,12.31,0,1,1,94.44,73.52,12.32,12.32,0,0,1,82.07,85.88Zm4.14-12.26A4.09,4.09,0,1,0,78,73.57a4.09,4.09,0,0,0,8.17.05Z"/></g></g></svg>