<svg xmlns="http://www.w3.org/2000/svg" viewBox="0 0 322.44 246.12"><g id="Layer_2" data-name="Layer 2"><g id="Layer_1-2" data-name="Layer 1"><path d="M322.44,232c-2.09,6.39-5.62,11.5-12.49,13.34a25.45,25.45,0,0,1-6.52.76q-97.44.06-194.88,0a16.36,16.36,0,0,1-3.13-.2,4.2,4.2,0,0,1-3.63-4.15c-.15-2.36.9-4.16,3.24-4.76a19.23,19.23,0,0,1,4.68-.38H301.44c1.15,0,2.31,0,3.46,0,4.93-.22,8-3.25,8.05-8.21q.12-19.2,0-38.41c0-5.41-3.36-8.36-9.2-8.36q-43.61,0-87.21,0c-4.87,0-7.13-1.44-7.25-4.6s2.24-4.87,7.26-4.87h31.66c.37-10.17.76-20,1.08-29.84q2-62.46,4-124.92c0-1.68.14-3.36.29-5C254.31,4.92,260-.2,267.32,0a13.15,13.15,0,0,1,12.95,13.14q2.25,67.65,4.46,135.3c.26,7.74.56,15.49.85,23.69h11c2.94,0,5.88,0,8.82,0a17.24,17.24,0,0,1,15.89,11.34c.33.86.74,1.68,1.11,2.51Zm-46.52-60c0-1.31,0-2.44,0-3.57q-2.32-72.06-4.66-144.13c-.1-3.35-.32-6.71-.39-10.06-.06-2.67-1-4.61-3.92-4.65s-3.89,2-4,4.6c0,1-.13,2.1-.17,3.15q-.71,21.56-1.41,43.11L257.82,169c0,1,0,2,0,3Z"/><path d="M0,186c.62-1.41,1.14-2.88,1.86-4.24,3.22-6.06,8.27-9.41,15.15-9.58,6.49-.17,13,0,19.78,0,.1-1.32.22-2.44.26-3.56l2-62.94c.12-3.88,1.95-6,5-5.91s4.57,2.23,4.46,6q-1,31.32-2,62.63c0,1.13,0,2.26,0,3.57H64.63c0-1,0-2,0-3q-1.77-54.12-3.57-108.25Q60.33,38.84,59.62,17c0-1-.12-2.09-.17-3.14-.13-2.53-1.19-4.32-4-4.28s-3.81,1.76-3.89,4.34c-.14,4.19-.35,8.39-.49,12.58q-1,28.95-1.91,57.91c0,.31,0,.63,0,.94-.22,2.94-2.1,4.91-4.68,4.92s-4.78-2.1-4.73-5.19c.12-6.72.39-13.43.62-20.14q.88-26,1.8-51.92A13.14,13.14,0,0,1,55,0c7.33-.27,13.4,4.79,13.76,12.21.78,16.46,1.22,32.93,1.78,49.4q1.8,53.49,3.57,107c0,1,.1,2.08.17,3.53H192.36a22,22,0,0,1,3.15.06c2.62.4,4.19,1.92,4.2,4.64s-1.57,4.26-4.17,4.69a22,22,0,0,1-3.45.07H19.85c-7.75,0-10.39,2.62-10.39,10.34q0,17.63,0,35.26c0,6.52,2.87,9.38,9.43,9.39q32.74,0,65.49,0a22.35,22.35,0,0,1,3.76.18,4.31,4.31,0,0,1,4,4.84A4.26,4.26,0,0,1,88,246a28.35,28.35,0,0,1-3.45.12h-63C8.82,246.12,4.77,243.46,0,232Z"/><path d="M164.31,44.34c21.35.42,42.5,8.67,60.17,25.48,1.09,1,2.44,2.47,2.5,3.78a5.81,5.81,0,0,1-1.9,4.49c-1.17.81-3.32.61-4.91.25-1.09-.24-2-1.48-2.88-2.34A81.92,81.92,0,0,0,105,76.2l-.91.87c-2.7,2.45-5.48,2.67-7.48.59s-1.79-4.78.91-7.41a90.33,90.33,0,0,1,29.26-19.16C137.63,46.67,149.65,44.31,164.31,44.34Z"/><path d="M162.16,69.7A65,65,0,0,1,206.6,87.84c1.08,1,2.34,2.52,2.38,3.82a5.87,5.87,0,0,1-2,4.47c-1.17.79-3.31.49-4.91.14-1-.21-1.78-1.39-2.63-2.17a56.54,56.54,0,0,0-76.65.12c-.54.5-1,1-1.62,1.5-2.35,1.89-4.89,1.82-6.76-.17a4.48,4.48,0,0,1,.41-6.71c5.54-4.26,11-8.73,17.09-12.14C141,71.64,151,69.79,162.16,69.7Z"/><path d="M191.61,109.09c-.13,4.51-3.71,6.67-6.79,5a13.33,13.33,0,0,1-2.47-1.92,31.47,31.47,0,0,0-42.19-.06c-.39.35-.76.72-1.17,1-2.55,2-5.11,2-7-.11s-1.55-4.78.73-7a38.64,38.64,0,0,1,16.67-9.73c14.9-4.1,28.22-1.06,39.76,9.26A15.86,15.86,0,0,1,191.61,109.09Z"/><path d="M161.87,116.46a18.32,18.32,0,0,1,12.44,5.1c2.4,2.23,2.6,4.81.69,6.94s-4.28,2.09-6.75.27c-5.29-3.88-8.72-3.85-14.19.14a4.84,4.84,0,0,1-6.77-.53c-1.65-1.91-1.53-4.51.51-6.5C151.5,118.28,156,116.48,161.87,116.46Z"/><path d="M115.52,223.87c-2.52,0-5,.08-7.55,0a4.57,4.57,0,0,1-4.62-4.58c.08-2.67,1.59-4.56,4.18-4.68,5.33-.25,10.69-.22,16,0a4.47,4.47,0,0,1,4.28,4.89,4.59,4.59,0,0,1-4.78,4.41C120.55,223.94,118,223.87,115.52,223.87Z"/><path d="M44.34,223.87c-2.52,0-5,.07-7.55,0-2.85-.1-4.63-1.83-4.75-4.4a4.53,4.53,0,0,1,4.56-4.95c5-.16,10.07-.14,15.09,0a4.75,4.75,0,0,1,4.84,4.77c0,2.61-2,4.5-5,4.6C49.16,223.94,46.75,223.87,44.34,223.87Z"/><path d="M243.26,223.87c-2.51,0-5,.07-7.54,0-2.87-.11-4.62-1.81-4.73-4.41a4.51,4.51,0,0,1,4.56-4.94c5-.16,10.06-.14,15.08,0a4.71,4.71,0,0,1,4.81,4.79c0,2.63-2,4.48-4.95,4.58C248.08,223.94,245.67,223.87,243.26,223.87Z"/><path d="M151.37,223.87c-2.51,0-5,.07-7.54,0-2.85-.11-4.62-1.85-4.72-4.43a4.53,4.53,0,0,1,4.59-4.92c5-.16,10.06-.14,15.08,0a4.73,4.73,0,0,1,4.81,4.8c-.05,2.6-2,4.47-5,4.57C156.2,223.94,153.78,223.87,151.37,223.87Z"/><path d="M79.86,223.86c-2.51,0-5,.09-7.54,0a4.66,4.66,0,0,1-.2-9.32c5.23-.16,10.48-.17,15.71,0a4.46,4.46,0,0,1,4.28,4.88c-.11,2.6-1.86,4.26-4.71,4.45H79.86Z"/><path d="M278.35,223.87c-2.52,0-5,.08-7.54,0a4.66,4.66,0,0,1-.25-9.31q7.85-.27,15.7,0a4.67,4.67,0,0,1-.38,9.32C283.37,224,280.86,223.87,278.35,223.87Z"/></g></g></svg>