<svg xmlns="http://www.w3.org/2000/svg" viewBox="0 0 263.96 245.48"><g id="Layer_2" data-name="Layer 2"><g id="Layer_1-2" data-name="Layer 1"><path d="M0,173.26c1.32-2.18,3.32-2.62,5.72-2.61q18.95.1,37.89,0a4.56,4.56,0,0,0,3.23-1.37Q62.69,149.1,78.36,128.8c.26-.33.48-.68,1.08-1.55h-3q-26.8,0-53.61,0c-4,0-7.68-.9-10.48-4a12.15,12.15,0,0,1,4-19.26,6,6,0,0,0,2.77-2.9A155.43,155.43,0,0,1,34.72,71.86c1.92-2.8,3.83-3.38,6-1.88,2,1.4,2.07,3.37.52,6.13-4.51,8.07-8.95,16.19-13.39,24.31a16.41,16.41,0,0,0-.91,2.47H246.28c-.85-2-1.55-3.69-2.33-5.37-10.6-22.88-25.65-42-47.24-55.49a107.6,107.6,0,0,0-46.43-15.65c-20-2.09-39.41,0-58.13,7.58a107.93,107.93,0,0,0-35,23.17C55.25,59,53.49,61,51.6,62.87c-2.05,2-4.15,2.22-5.87.6s-1.92-3.76.26-5.85c5.5-5.3,10.85-10.81,16.83-15.53a110.32,110.32,0,0,1,49.37-21.94c1.89-.34,2.87-1,3.27-3.09a21.57,21.57,0,0,1,42.28.44,2.75,2.75,0,0,0,2.59,2.57C201.84,28,229.93,53,248.77,89.7c2,3.88,3.51,8,5.39,12a4.85,4.85,0,0,0,2.18,2.16c5.23,2.39,8.25,7.43,7.51,12.84A12,12,0,0,1,253,127.07a26.7,26.7,0,0,1-3.34.18q-23,0-45.89,0h-2.94a52.73,52.73,0,0,1,.95,7c0,3.77-1.68,6.92-4.21,9.69q-22.87,25.17-45.71,50.41a16.77,16.77,0,0,1-8.71,5.13C113.77,206.73,84.38,214,55,221.18c-2.61.63-3.73,1.5-3.48,4.35a95.79,95.79,0,0,1,.06,10.31c0,2.8-1.18,4.15-3.93,4.48-14.14,1.73-28.3,3.37-42.45,5.11A5.06,5.06,0,0,1,0,242.86Zm51.56,40.62a6,6,0,0,0,1.1,0q44.34-11,88.65-22a11.52,11.52,0,0,0,5.31-3.29q22.55-24.6,44.88-49.41a16.59,16.59,0,0,0,1.34-1.57,6.44,6.44,0,0,0,.43-7.05,5.49,5.49,0,0,0-6.25-3.06,10.33,10.33,0,0,0-4.81,2.61Q161,150.93,139.92,172a7.7,7.7,0,0,1-5.91,2.46c-17.18-.07-34.36,0-51.55,0-1.93,0-3.83,0-5-2s-.08-3.77,1-5.46c6.34-9.7,12.7-19.39,19-29.14,2.34-3.63,1.73-7.26-1.29-9.32-3.31-2.26-6.6-1.59-9.34,1.94C76.1,144.31,65.41,158.2,54.54,171.94a13,13,0,0,0-3.06,8.84C51.68,191.76,51.56,202.76,51.56,213.88Zm85-103.11H23.72a17.72,17.72,0,0,0-3.34.14A3.92,3.92,0,0,0,17,114.85a3.84,3.84,0,0,0,2.94,4.27,14.33,14.33,0,0,0,3.82.38q112.76,0,225.5,0a22.17,22.17,0,0,0,2.58-.06c2.7-.31,4.47-2.15,4.39-4.49s-1.88-4-4.64-4.18c-.86,0-1.72,0-2.58,0ZM7.89,178.48v58.8L43.61,233V178.48ZM99,166.69c3.51,0,6.46-.1,9.41,0a5.48,5.48,0,0,0,4.51-1.81c10.72-10.75,21.52-21.42,32.3-32.12.6-.6,1.17-1.23,1.72-1.81-2.51-4.56-7.09-5-11.1-1q-17.65,17.46-35.27,35C100.15,165.35,99.79,165.79,99,166.69Zm23.3,0c3.61,0,6.7.15,9.76-.08a6.3,6.3,0,0,0,3.75-1.57c11-10.73,21.86-21.57,32.76-32.39.59-.58,1.14-1.21,1.67-1.79-2.91-4.39-7.18-4.84-10.95-1.12q-18,17.81-36,35.71C123,165.68,122.86,166,122.28,166.69Zm4-39.23h-21c2.56,6.14,1.13,11.35-2.42,16.42-4.22,6-8.11,12.31-12.14,18.49-.38.59-.68,1.24-1,1.87l.42.31Zm-3-109.26h26.55C148.7,12,142.65,7.48,135.75,7.75,129.62,8,123.81,12.91,123.32,18.2Z"/></g></g></svg>