<svg xmlns="http://www.w3.org/2000/svg" viewBox="0 0 295.51 248.39"><g id="Layer_2" data-name="Layer 2"><g id="Layer_1-2" data-name="Layer 1"><path d="M0,221.79c1.31-2.41,3.37-3,6-3,22.41.07,44.82,0,67.22,0H76.8c-6.24-23.78-.37-43.19,21.15-55.66,16.23-9.4,33.19-8.27,48.33,2.83,18,13.18,22.55,31.34,16.57,52.66,6.37,0,12.67.21,19-.09a7.53,7.53,0,0,0,6.84-5.46c4.33-13.11,8.51-26.28,12.88-39.84-5.27,0-10.22.12-15.17,0a16.61,16.61,0,0,1-14.63-23.78c3.06-6.29,8.31-9.45,15.25-9.56,7.79-.13,15.57,0,24,0a41.43,41.43,0,0,0-2.47-4.45c-4-5.45-8.48-9.29-16-10.66-22.41-4.1-41-15.73-56.89-31.91-2.09-2.13-4.14-4.29-6.26-6.39-7-6.92-7.11-17-.11-23.89,7.25-7.16,14.62-14.2,21.94-21.3A13.72,13.72,0,0,0,153,39.39a3.6,3.6,0,0,0-2.63-5.78,27.64,27.64,0,0,0-2.88,0q-70.55,0-141.08,0c-2.68,0-4.92-.47-6.41-2.88V27.84c1.29-2.21,3.16-3,5.74-3q71.71.09,143.42.05c6,0,10.5,2.72,12.34,7.7,2,5.45.64,10.14-3.51,14.17-2.48,2.41-4.78,5-7.34,7.71l10.84,12.68c.5.59,1,1.14,1.5,1.75,1.59,2.16,1.42,4.66-.4,6.22s-4.26,1.48-6.14-.63c-3.46-3.87-6.79-7.86-10.18-11.79-.68-.79-1.38-1.57-2.59-3-3.11,3.34-6.11,6.44-9,9.67a7.32,7.32,0,0,0,0,10c14.62,16.31,31.46,29.34,52.94,35.41.92.26,1.86.48,2.79.69.16,0,.35-.11.83-.27-1.67-2-3.26-3.87-4.87-5.75C181,103.25,175.55,97,170.34,90.63a6.36,6.36,0,0,1-1.23-4.88c.92-3.5,5-3.76,7.74-.65,5.79,6.69,11.52,13.43,17.28,20.15,6.64,7.74,13.22,15.53,19.92,23.21,5.41,6.21,6.74,13.11,4.21,20.93-7,21.56-13.85,43.15-20.79,64.73-2.86,8.88-9,13.34-18.26,13.36-6.15,0-12.31.07-18.47,0a4.28,4.28,0,0,0-4,2,45.32,45.32,0,0,1-73.6.12,4.59,4.59,0,0,0-4.25-2.13c-24.24.06-48.48,0-72.71.08-2.63,0-4.69-.64-6.15-2.86Zm156.72-19.94c-.95-20.74-18.15-36.9-38.16-35.88-21.18,1.09-36.48,18.19-35.46,39.63.93,19.59,18.7,35,39.21,34.07C141.56,238.77,157.61,221.12,156.72,201.85Zm52.7-53.3c-8,0-15.37-.12-22.77,0a8,8,0,0,0-.35,15.95c5.94.2,11.9.05,18,.05C206,159.29,207.64,154.1,209.42,148.55Z"/><path d="M295.51,55.55c-.56,2.41-1.07,4.83-1.7,7.22a49.84,49.84,0,0,1-41.54,36.72c-.75.11-1.48.31-2.25.47V214.67c2.59,0,5.07,0,7.54,0,8.65.14,14.63,6.09,14.77,14.76q.1,6.19,0,12.4c-.07,4.32-2.32,6.53-6.67,6.54q-20.07,0-40.12,0c-4.55,0-6.71-2.18-6.76-6.72,0-4.14-.06-8.27,0-12.41a14.27,14.27,0,0,1,14.36-14.56c2.58-.06,5.16,0,7.91,0V100c-1.68-.31-3.45-.6-5.2-1a50,50,0,0,1,.4-98.07c27.47-5.46,54.79,14,58.7,41.78a12.61,12.61,0,0,0,.55,1.88ZM245.71,8.76a41.29,41.29,0,1,0,41.14,41.42A41.22,41.22,0,0,0,245.71,8.76ZM227.44,239.57H263.6c0-3.86.21-7.6-.07-11.3-.23-3.05-2.52-4.88-5.76-4.91q-12.25-.11-24.5,0c-3.54,0-5.7,2.27-5.81,5.82C227.36,232.54,227.44,235.9,227.44,239.57Z"/><path d="M0,121.93c1.33-2.37,3.38-3,6-3q43.53.1,87.06,0a14.66,14.66,0,0,0,4-.38c4.22-1.19,6.53-6,4.22-9.62C93.75,97.07,85.55,85.74,72.75,78.72A65.35,65.35,0,0,0,40.21,70.4c-11.24.08-22.48,0-33.73,0C3.82,70.47,1.56,70,0,67.67V64.78a5.48,5.48,0,0,1,5.39-3.06c12.22.09,24.44-.15,36.65.11,24.41.52,43.77,11,58.31,30.48,2.47,3.32,4.76,6.76,7.14,10.14,3.76,5.35,4.46,11,1.37,16.85s-8,8.34-14.44,8.35c-29.62,0-59.25,0-88.87,0A6.24,6.24,0,0,1,0,124.81Z"/><path d="M54.54,151.4c-2.3,0-4.61.06-6.91,0-2.77-.09-4.48-1.71-4.54-4.17a4.18,4.18,0,0,1,4.31-4.42q7.34-.18,14.68,0a4.29,4.29,0,1,1,0,8.57C59.54,151.47,57,151.39,54.54,151.4Z"/><path d="M119.73,182c10.67.44,19.58,8.58,20.47,19s-6.47,20.08-16.5,21.83a20.53,20.53,0,0,1-23.62-15,11.28,11.28,0,0,1-.26-1.41c-.37-3,.89-5,3.34-5.46s4.34.92,5.15,3.85c1.62,5.88,5,9.16,10.39,9.64A11.17,11.17,0,0,0,130,208.63a11.7,11.7,0,0,0-13-17.13c-1,.22-2,.73-3,.91-2.25.39-4-.4-4.84-2.62s-.16-4.41,2.1-5.32A83.42,83.42,0,0,1,119.73,182Z"/><path d="M238.91,55.6V68a27.91,27.91,0,0,1,0,3.17,4.33,4.33,0,0,1-4.45,4,4.19,4.19,0,0,1-4.12-4.32q-.07-20.19,0-40.36A5.32,5.32,0,0,1,235.77,25c4.71-.11,9.43-.19,14.13,0,7.64.37,13.79,6.94,14.16,14.85.36,7.61-5.27,14.77-12.82,15.68C247.29,56,243.24,55.6,238.91,55.6ZM239,47c3.88,0,7.44.27,10.93-.08a6.31,6.31,0,0,0,5.44-6.46c.05-3.16-2.14-6.35-5.25-6.66-3.66-.36-7.38-.09-11.12-.09Z"/></g></g></svg>