<svg xmlns="http://www.w3.org/2000/svg" viewBox="0 0 143.77 31.98"><defs><style>.cls-1{fill:#202843;}.cls-1,.cls-2{fill-rule:evenodd;}.cls-2{fill:#ffc94c;}</style></defs><g id="Layer_2" data-name="Layer 2"><g id="Layer_1-2" data-name="Layer 1"><g id="g76"><g id="g50"><path id="path48" class="cls-1" d="M30.53,20.75a15.68,15.68,0,1,0-19.91,9.78,15.69,15.69,0,0,0,19.91-9.78"/></g><path id="path54" class="cls-2" d="M2.41,24c2.44-1.16,10.75-5.24,12.38-6.2l3.35-1.94L19,17.62l1.3,8.53,1-.57.66-11.91c2-1.26,3.76-2.47,5.61-3.75l2.08-1.43c-.23-.43-.48-.86-.74-1.27L26.61,8.3c-2,1-4,1.88-6.05,3L9.92,5.9l-1,.58,6.74,5.38,1.07,1.6h0L13.39,15.4c-1.65.93-9.34,6.09-11.57,7.62.19.35.38.68.59,1"/><path id="path56" class="cls-1" d="M140.73,12.2V10.48h3V26.16h-3.12V24.38a6.16,6.16,0,0,1-5,2.15c-4.46,0-7.32-3.55-7.32-8.2s2.86-8.21,7.32-8.21A6.76,6.76,0,0,1,140.73,12.2Zm-.21,3.08a5.09,5.09,0,0,0-4.32-2.21c-2.76,0-4.66,2.33-4.66,5.26s1.83,5.33,4.66,5.33a5.16,5.16,0,0,0,4.32-2.48v-5.9"/><path id="path58" class="cls-1" d="M122.1,6.44a2.18,2.18,0,0,1,2.2-2.18,2.21,2.21,0,0,1,2.18,2.18,2.19,2.19,0,1,1-4.38,0"/><path id="path60" class="cls-1" d="M122.67,26.16h3.24V10.48h-3.24Z"/><path id="path62" class="cls-1" d="M116.33,4.66h3.17v21.5h-3.12V24.38a6.16,6.16,0,0,1-4.95,2.15c-4.46,0-7.32-3.55-7.32-8.2s2.86-8.21,7.32-8.21a6.83,6.83,0,0,1,4.9,1.93Zm-.07,10.62a5.12,5.12,0,0,0-4.33-2.21c-2.76,0-4.66,2.33-4.66,5.26s1.83,5.33,4.66,5.33a5.19,5.19,0,0,0,4.33-2.48v-5.9"/><path id="path64" class="cls-1" d="M95,26.56a9.16,9.16,0,0,0,3.86-.8,8.92,8.92,0,0,0,3-2.29L100,21.41h0A8,8,0,0,1,97.77,23a6,6,0,0,1-2.74.6,4.88,4.88,0,0,1-4.83-4.23h12.2v-.1c0-.38,0-.75,0-1.13,0-4.48-3.22-8.11-7.66-8.11a7.88,7.88,0,0,0-7.86,8.24A7.87,7.87,0,0,0,95,26.56Zm-4.69-9.83h8.85a4.38,4.38,0,0,0-4.41-3.8,4.45,4.45,0,0,0-3,1.24,4.54,4.54,0,0,0-1.43,2.56"/><path id="path66" class="cls-1" d="M73.16,24.59V32H70V10.48h3.12v1.78a6.15,6.15,0,0,1,4.94-2.16c4.46,0,7.33,3.56,7.33,8.21s-2.87,8.21-7.33,8.21A6.85,6.85,0,0,1,73.16,24.59Zm.07-3.23a5.12,5.12,0,0,0,4.33,2.21c2.76,0,4.66-2.34,4.66-5.26S80.39,13,77.56,13a5.21,5.21,0,0,0-4.33,2.47v5.91"/><path id="path68" class="cls-1" d="M58.73,18.1,53.2,10.48h3.92l3.69,5.19,3.69-5.19h3.86L62.8,18.13l5.82,8H64.7l-3.94-5.55-3.93,5.55H52.89l5.84-8.06"/><path id="path70" class="cls-1" d="M42.75,17H50.9V13.88H42.75V8.29H51.6V5.21H39.2v21H51.67V23.08H42.75V17"/></g></g></g></svg>