<svg xmlns="http://www.w3.org/2000/svg" xmlns:xlink="http://www.w3.org/1999/xlink" viewBox="0 0 177.95 30.19"><defs><style>.cls-1{fill:none;}.cls-2{clip-path:url(#clip-path);}.cls-3{fill:#273b7d;}.cls-4{fill:#499fdd;}.cls-5{clip-path:url(#clip-path-4);}</style><clipPath id="clip-path"><rect class="cls-1" width="177.95" height="30.19"/></clipPath><clipPath id="clip-path-4"><rect class="cls-1" y="0.59" width="177.91" height="29.56"/></clipPath></defs><g id="Layer_2" data-name="Layer 2"><g id="Layer_1-2" data-name="Layer 1"><g class="cls-2"><g class="cls-2"><path class="cls-3" d="M69.78,3.31A2.71,2.71,0,1,1,72.48,6a2.71,2.71,0,0,1-2.7-2.71"/><path class="cls-4" d="M112.45,21.34a2.7,2.7,0,1,1,2.7,2.71,2.71,2.71,0,0,1-2.7-2.71"/><path class="cls-3" d="M25.41,20.17c-2.33,0-3.95-1.85-3.95-4.5s1.62-4.49,3.95-4.49,4,1.85,4,4.49-1.6,4.5-4,4.5Zm0-12.94a8.2,8.2,0,0,0-8.51,8.44,8.2,8.2,0,0,0,8.51,8.44,8.21,8.21,0,0,0,8.53-8.44,8.21,8.21,0,0,0-8.53-8.44M64.55,16.1a3.6,3.6,0,0,0-.65-.91L63.75,15l.16-.15a6.17,6.17,0,0,0,.68-.85l4.35-6.46H63.66l-3.27,5a1.27,1.27,0,0,1-1.11.41h-.75V3.47c0-1.91-1.19-2.17-2.48-2.17h-2.2V23.86h4.68V17.09H59c.53,0,.9.07,1.06.36l2.58,4.87a2.59,2.59,0,0,0,2.79,1.54H69l-2.67-4.41L64.55,16.1m22.7-8.9a6.34,6.34,0,0,0-4.75,2l-.28.29-.1-.39a2.16,2.16,0,0,0-2.36-1.49h-2.1l0,16.3h4.64V16.35a6.22,6.22,0,0,1,.29-2,3.82,3.82,0,0,1,3.76-2.85c1.45,0,2,.76,2,2.74v7.1a2.16,2.16,0,0,0,2.47,2.48h2.21V13.49c0-4.12-2-6.29-5.81-6.29m-14.71.37h-2.2l0,12.6h0v3.69H75V10a2.16,2.16,0,0,0-2.44-2.47m-28.9,12.6c-2.33,0-3.95-1.85-3.95-4.5s1.62-4.49,3.95-4.49,4,1.85,4,4.49-1.6,4.5-4,4.5Zm0-12.94a8.2,8.2,0,0,0-8.51,8.44,8.2,8.2,0,0,0,8.51,8.44,8.22,8.22,0,0,0,8.54-8.44,8.22,8.22,0,0,0-8.54-8.44"/></g></g><g class="cls-2"><g class="cls-5"><g class="cls-2"><path class="cls-4" d="M143.22,20.17c-2.33,0-3.95-1.85-3.95-4.5s1.62-4.49,3.95-4.49,4,1.85,4,4.49-1.61,4.5-4,4.5Zm0-12.94a8.2,8.2,0,0,0-8.51,8.44,8.52,8.52,0,0,0,17,0,8.21,8.21,0,0,0-8.53-8.44"/><path class="cls-3" d="M102.86,19.45c-2.54,0-3.45-2.22-3.45-4.29,0-.92.23-3.9,3.2-3.9,1.48,0,3.44.42,3.44,4.05,0,3.42-1.74,4.14-3.19,4.14Zm5.61-11.93a2,2,0,0,0-1.9,1l-.13.25-.22-.19a6.31,6.31,0,0,0-4.28-1.42c-4.34,0-7.26,3.26-7.26,8.12s3,8.24,7.35,8.24a5.75,5.75,0,0,0,3.58-1.05l.35-.27v.45c0,2.18-1.4,3.38-3.95,3.38a9.57,9.57,0,0,1-3.13-.57,1.37,1.37,0,0,0-2,.93l-.37.91L96,28.64l.32.17A12.63,12.63,0,0,0,102,30.19c4,0,8.58-2,8.58-7.72V7.52h-2.15"/></g></g></g><g class="cls-2"><g class="cls-2"><path class="cls-3" d="M8.11,20H4.33V15.45c0-1,.37-1.46,1.2-1.58H8.11a2.83,2.83,0,0,1,3,3A2.81,2.81,0,0,1,8.11,20ZM4.33,7.78V6.59c0-1,.44-1.53,1.4-1.6H7.67a2.44,2.44,0,0,1,2.65,2.66,2.52,2.52,0,0,1-2.59,2.74H4.33Zm8.61,4.52-.69-.39.6-.51a5.48,5.48,0,0,0,1.86-4.25c0-3.55-2.75-5.84-7-5.84H2.29A2.36,2.36,0,0,0,0,3.65V23.78H7.79c4.74,0,7.79-2.58,7.79-6.57a5.49,5.49,0,0,0-2.64-4.91"/><path class="cls-4" d="M172.5,7.25a6.38,6.38,0,0,0-5,2.42l-.34.42-.26-.47a4.63,4.63,0,0,0-4.4-2.37,5.91,5.91,0,0,0-4.28,1.92l-.44.48L157.63,9a2.08,2.08,0,0,0-2.27-1.4h-2l0,16.23h4.43V16.69a7.85,7.85,0,0,1,.24-1.9c.42-1.73,1.59-3.59,3.54-3.41,1.21.12,1.8,1,1.8,2.85v9.62h4.47V16.69a6.39,6.39,0,0,1,.25-2c.36-1.65,1.57-3.35,3.46-3.35,1.36,0,1.87.77,1.87,2.85v7.25c0,1.64.73,2.37,2.37,2.37h2.09V13.49c0-4.14-1.82-6.24-5.41-6.24m-40.36,11a6.87,6.87,0,0,1-4.43,2,4.35,4.35,0,0,1-4.61-4.54,4.29,4.29,0,0,1,4.36-4.6c.84,0,1.79.29,1.93.8l0,.08a1.62,1.62,0,0,0,1.58,1.2h2.43V11.07c0-2.8-3.57-3.82-6-3.82-5.13,0-8.85,3.57-8.85,8.49s3.68,8.48,8.76,8.48a9.2,9.2,0,0,0,6.82-2.92l.13-.16L132.39,18l-.25.27"/></g></g></g></g></svg>