<svg xmlns="http://www.w3.org/2000/svg" viewBox="0 0 139.78 29.73"><defs><style>.cls-1{fill:#34e0a1;}</style></defs><g id="Layer_2" data-name="Layer 2"><g id="Layer_1-2" data-name="Layer 1"><path d="M139,19.87a.79.79,0,1,0,.78.78.78.78,0,0,0-.78-.78Zm0,1.45a.67.67,0,1,1,.66-.67A.67.67,0,0,1,139,21.32Zm.25-.8a.23.23,0,0,0-.25-.23h-.25V21h.12v-.26H139l.13.26h.13l-.14-.29a.21.21,0,0,0,.12-.2Zm-.25.12h-.13V20.4H139c.08,0,.13,0,.13.12s0,.12-.13.12ZM44.32,11.92V10H41.41v11.3h2.91V14.54c0-1.22.79-1.83,2-1.83h1.59V10H46.57a2.15,2.15,0,0,0-2.25,1.9Zm6.34-6.38a1.78,1.78,0,1,0,1.76,1.79A1.75,1.75,0,0,0,50.66,5.54ZM49.21,21.32h2.9V10h-2.9ZM66,15.67a5.84,5.84,0,0,1-5.84,5.84,5.59,5.59,0,0,1-3.43-1.14v4.27H53.78V10h2.91v1a5.59,5.59,0,0,1,3.43-1.14A5.84,5.84,0,0,1,66,15.67Zm-2.92,0a3.18,3.18,0,1,0-3.18,3.17A3.18,3.18,0,0,0,63,15.67Zm53.45-1-1.7-.47c-1.12-.29-1.55-.63-1.55-1.22s.61-1,1.49-1a1.37,1.37,0,0,1,1.48,1.25v.06h2.68v-.06c0-2.06-1.67-3.43-4.16-3.43s-4.26,1.37-4.26,3.27a3.17,3.17,0,0,0,2.68,3l1.63.45c1.23.34,1.69.72,1.69,1.4s-.66,1.19-1.65,1.19a1.58,1.58,0,0,1-1.72-1.61v-.07h-2.84v.07c0,2.32,1.86,3.94,4.54,3.94s4.44-1.59,4.44-3.77C119.24,16.68,118.77,15.29,116.49,14.68ZM76.27,10h2.91v11.3H76.27v-.95a5.59,5.59,0,0,1-3.43,1.14,5.84,5.84,0,0,1,0-11.68A5.59,5.59,0,0,1,76.27,11Zm0,5.65a3.18,3.18,0,1,0-3.17,3.17A3.17,3.17,0,0,0,76.27,15.67ZM89.68,6h2.9V21.32h-2.9v-.95a5.64,5.64,0,0,1-3.43,1.15,5.85,5.85,0,1,1,0-11.69A5.58,5.58,0,0,1,89.68,11Zm0,9.68a3.18,3.18,0,1,0-3.18,3.17A3.17,3.17,0,0,0,89.68,15.67Zm16.4,5.65H109V10h-2.91Zm1.45-15.78a1.78,1.78,0,1,0,1.77,1.79A1.76,1.76,0,0,0,107.53,5.54Zm24.28,10.13A5.85,5.85,0,1,1,126,9.83,5.84,5.84,0,0,1,131.81,15.67Zm-2.67,0A3.18,3.18,0,1,0,126,18.84,3.17,3.17,0,0,0,129.14,15.67ZM42.83,6H31.68v2.6h4.13V21.32h2.9V8.59h4.12V6Zm56.4,12.24L96.64,10h-3l3.88,11.3H101l3.9-11.3h-3.06Zm36.84-6.31V10h-2.92v11.3h2.92V14.54c0-1.22.79-1.83,2-1.83h1.6V10h-1.36a2.14,2.14,0,0,0-2.25,1.9Z"/><circle class="cls-1" cx="14.87" cy="14.87" r="14.87"/><path d="M24.05,12l1.79-2h-4a12.41,12.41,0,0,0-14,0h-4l1.8,2A5.48,5.48,0,1,0,13.11,20L14.87,22,16.62,20A5.48,5.48,0,1,0,24.05,12ZM9.38,19.73A3.71,3.71,0,1,1,13.09,16,3.71,3.71,0,0,1,9.38,19.73Zm5.49-3.82a6.05,6.05,0,0,0-4.12-5.43,10.64,10.64,0,0,1,8.24,0A6,6,0,0,0,14.87,15.91Zm5.48,3.82A3.71,3.71,0,1,1,24.06,16,3.71,3.71,0,0,1,20.35,19.73Zm0-5.66A1.95,1.95,0,1,0,22.3,16a1.94,1.94,0,0,0-1.95-1.95Zm-9,1.95a1.95,1.95,0,1,1-1.95-1.95A2,2,0,0,1,11.33,16Z"/></g></g></svg>